<svg
  width="33"
  height="32"
  viewBox="0 0 33 32"
  fill="none"
  xmlns="http://www.w3.org/2000/svg"
>
  <path
    fillRule="evenodd"
    clipRule="evenodd"
    d="M27.8375 4.65012C26.3615 3.17149 24.6053 1.99909 22.6707 1.20087C20.7361 0.402655 18.6615 -0.0055015 16.5672 5.59984e-05C7.78454 5.59984e-05 0.636752 7.11277 0.633696 15.8556C0.629945 18.6381 1.36359 21.3724 2.76061 23.7826L0.5 32.0001L8.94655 29.7951C11.2825 31.0619 13.9002 31.7256 16.5604 31.7256H16.5672C25.3484 31.7256 32.497 24.6121 32.5 15.8693C32.5068 13.7853 32.0981 11.7207 31.2978 9.79496C30.4975 7.8692 29.3214 6.12052 27.8375 4.65012ZM16.5672 29.044H16.5619C14.1901 29.0451 11.8617 28.4115 9.82054 27.2093L9.33694 26.9242L4.32524 28.2327L5.66373 23.3667L5.34821 22.8679C4.02364 20.7672 3.32285 18.3365 3.32672 15.8564C3.32672 8.59158 9.26742 2.67787 16.5726 2.67787C18.312 2.67887 20.0341 3.02081 21.6407 3.68417C23.2473 4.34752 24.7068 5.3193 25.9361 6.54403C27.1653 7.76875 28.14 9.22243 28.8048 10.8221C29.4695 12.4217 29.8111 14.136 29.81 15.867C29.807 23.1341 23.8663 29.044 16.5672 29.044ZM23.8312 19.1728C23.4331 18.9744 21.4758 18.0164 21.1106 17.8803C20.7454 17.7442 20.4803 17.6819 20.2152 18.0787C19.9501 18.4756 19.1869 19.3675 18.9547 19.6321C18.7224 19.8967 18.4902 19.9293 18.0921 19.7309C17.6941 19.5325 16.4114 19.1143 14.8903 17.7647C13.7069 16.714 12.904 15.4169 12.6748 15.02C12.4456 14.6231 12.6503 14.4118 12.8497 14.211C13.0285 14.0339 13.2478 13.7488 13.4464 13.5169C13.645 13.285 13.7123 13.1208 13.8444 12.8562C13.9766 12.5916 13.9109 12.3604 13.8116 12.162C13.7123 11.9636 12.9154 10.0134 12.5839 9.22036C12.2607 8.44788 11.9329 8.55204 11.6885 8.53607C11.4593 8.52467 11.1904 8.52239 10.9245 8.52239C10.7227 8.52764 10.5242 8.57439 10.3414 8.6597C10.1587 8.74502 9.99563 8.86704 9.86256 9.01811C9.49814 9.415 8.46983 10.373 8.46983 12.3232C8.46983 14.2734 9.89618 16.1574 10.0948 16.422C10.2934 16.6866 12.9024 20.6881 16.8942 22.4049C17.6356 22.7231 18.3932 23.0022 19.164 23.2413C20.1175 23.5454 20.9853 23.5005 21.6714 23.3986C22.4354 23.2846 24.0267 22.4399 24.3591 21.5146C24.6914 20.5893 24.6906 19.7955 24.5883 19.6305C24.4859 19.4656 24.2292 19.3743 23.8312 19.1759V19.1728Z"
    fill="white"
  />
</svg>
