<svg
  width="32"
  height="32"
  viewBox="0 0 32 32"
  fill="none"
  xmlns="http://www.w3.org/2000/svg"
>
  <path
    d="M28.0582 32H21.99C22.0002 31.8664 22.0198 31.7328 22.0198 31.5985C22.0198 28.2036 22.0182 24.8087 22.0151 21.4138C22.0151 21.1115 22.1021 21.0185 22.4068 21.0232C23.1676 21.0427 23.9292 21.0232 24.6892 21.0357C24.9477 21.042 25.077 20.9576 25.1734 20.717C25.7508 19.2445 26.3447 17.7783 26.9323 16.3089C26.9691 16.216 26.9927 16.1176 27.0381 15.9691H22.3371C22.1734 15.9691 22.019 15.9785 22.0198 15.7403C22.0237 14.5318 22.0002 13.3234 22.0315 12.1165C22.0519 11.3502 22.2611 11.1432 23.0313 11.0877C23.7678 11.0346 24.5082 11.0463 25.247 11.0315C25.4938 11.0268 25.7406 11.0315 26.0039 11.0315V5.97037H25.6176C24.3875 5.97037 23.1574 5.97037 21.9273 5.97037C21.6365 5.9727 21.346 5.99304 21.0577 6.03129C18.2371 6.39843 15.9594 8.98562 15.954 11.8275C15.954 13.0664 15.954 14.3055 15.954 15.545C15.954 15.966 15.954 15.9668 15.5183 15.9668C14.4554 15.9668 13.3919 15.9668 12.3279 15.9668C12.2088 15.9668 12.089 15.977 11.9801 15.9816V21.0271H12.382C13.435 21.0271 14.4878 21.0271 15.5403 21.0271C15.954 21.0271 15.954 21.0271 15.954 21.4396C15.954 24.8246 15.954 28.2096 15.954 31.5946C15.954 31.7289 15.9735 31.8625 15.9837 31.9961H3.91083C3.81367 31.9672 3.71729 31.9359 3.61935 31.9102C3.17902 31.7946 2.70581 31.7477 2.30466 31.5532C0.699271 30.7759 0.00351578 29.4222 0.00273228 27.6841C-0.0019687 20.1642 -0.0019687 12.6443 0.00273228 5.12437C0.00273228 4.64709 0.0230979 4.16824 0.0560047 3.69096C0.114687 2.84413 0.449371 2.03962 1.00906 1.39996C1.56874 0.760295 2.32276 0.320534 3.15631 0.147639C3.40703 0.0960832 3.65932 0.0492127 3.91083 0H28.0582C28.1522 0.0377382 28.2499 0.0657422 28.3497 0.0835794C30.0326 0.208564 31.5048 1.49747 31.8472 3.1543C31.9013 3.41443 31.9491 3.67611 31.9992 3.93546V28.0575C31.9611 28.1514 31.9333 28.2491 31.9162 28.3489C31.7908 30.0299 30.5004 31.5008 28.8417 31.843C28.5832 31.9024 28.3191 31.95 28.0582 32Z"
    fill="white"
  />
</svg>  