<svg
  width="32"
  height="32"
  viewBox="0 0 32 32"
  fill="none"
  xmlns="http://www.w3.org/2000/svg"
>
  <g clip-path="url(#clip0_5920_1956)">
    <path
      d="M15.9992 2.88243C20.2717 2.88243 20.7772 2.89894 22.4647 2.97579C24.0246 3.04693 24.8718 3.30733 25.4358 3.52645C26.1316 3.78265 26.7611 4.19177 27.2777 4.72365C27.8096 5.24027 28.2187 5.8697 28.4749 6.56551C28.694 7.1295 28.9544 7.97675 29.0255 9.53661C29.1024 11.2241 29.1189 11.7297 29.1189 16.0022C29.1189 20.2746 29.1024 20.7802 29.0255 22.4677C28.9544 24.0276 28.694 24.8748 28.4749 25.4388C28.2084 26.1287 27.8006 26.7552 27.2777 27.2781C26.7548 27.8011 26.1282 28.2089 25.4384 28.4753C24.8744 28.6944 24.0271 28.9548 22.4673 29.026C20.7804 29.1028 20.2742 29.1193 16.0017 29.1193C11.7293 29.1193 11.2231 29.1028 9.53619 29.026C7.97634 28.9548 7.12908 28.6944 6.56509 28.4753C5.86928 28.2191 5.23986 27.81 4.72324 27.2781C4.19136 26.7615 3.78224 26.1321 3.52604 25.4363C3.30692 24.8723 3.04652 24.025 2.97539 22.4652C2.89854 20.7776 2.88202 20.2721 2.88202 15.9996C2.88202 11.7271 2.89854 11.2216 2.97539 9.53407C3.04652 7.97421 3.30692 7.12695 3.52604 6.56297C3.78224 5.86716 4.19136 5.23773 4.72324 4.72111C5.23986 4.18923 5.86928 3.78011 6.56509 3.52391C7.12908 3.30479 7.97634 3.04439 9.53619 2.97325C11.2237 2.8964 11.7293 2.87989 16.0017 2.87989L15.9992 2.88243ZM16.0017 -0.00292969C11.6562 -0.00292969 11.1113 0.0154889 9.40472 0.0936089C7.69815 0.171729 6.53588 0.444196 5.51968 0.839243C4.45179 1.24124 3.48429 1.87107 2.6845 2.68491C1.87066 3.4847 1.24084 4.4522 0.838837 5.52009C0.443792 6.53629 0.17323 7.70111 0.095745 9.40387C0.0182602 11.1066 -0.000793457 11.6541 -0.000793457 15.9996C-0.000793457 20.3451 0.0176251 20.8901 0.095745 22.5966C0.173865 24.3032 0.443792 25.4629 0.838837 26.4791C1.241 27.5466 1.87081 28.5136 2.6845 29.3131C3.48402 30.1274 4.45158 30.7575 5.51968 31.1594C6.53588 31.555 7.70069 31.8256 9.40345 31.9031C11.1062 31.9806 11.655 31.9996 16.0005 31.9996C20.346 31.9996 20.8909 31.9812 22.5975 31.9031C24.304 31.825 25.4625 31.555 26.4787 31.1594C27.5419 30.7485 28.5076 30.12 29.3135 29.314C30.1195 28.508 30.7481 27.5424 31.1589 26.4791C31.5546 25.4629 31.8252 24.2981 31.9026 22.5954C31.9801 20.8926 31.9992 20.3439 31.9992 15.9983C31.9992 11.6528 31.9808 11.1079 31.9026 9.40133C31.8245 7.69475 31.5546 6.53629 31.1589 5.52009C30.7572 4.45256 30.1276 3.48546 29.3139 2.68618C28.5142 1.87188 27.5467 1.24161 26.4787 0.839243C25.4625 0.444196 24.2977 0.173634 22.5949 0.0961494C20.8922 0.0186645 20.3447 -0.0003892 15.9992 -0.0003892L16.0017 -0.00292969Z"
      fill="white"
    />
    <path
      d="M15.9993 7.78418C14.3744 7.78418 12.7859 8.26604 11.4348 9.16882C10.0837 10.0716 9.03064 11.3548 8.40879 12.856C7.78695 14.3573 7.62424 16.0092 7.94126 17.603C8.25827 19.1967 9.04076 20.6607 10.1898 21.8097C11.3388 22.9587 12.8027 23.7412 14.3965 24.0582C15.9902 24.3752 17.6422 24.2125 19.1434 23.5907C20.6447 22.9688 21.9279 21.9158 22.8306 20.5647C23.7334 19.2135 24.2153 17.6251 24.2153 16.0001C24.2154 14.9212 24.0029 13.8528 23.59 12.8559C23.1772 11.8591 22.572 10.9533 21.8091 10.1904C21.0461 9.42745 20.1404 8.82227 19.1435 8.40941C18.1467 7.99655 17.0783 7.7841 15.9993 7.78418V7.78418ZM15.9993 21.3351C14.9442 21.3351 13.9127 21.0223 13.0354 20.436C12.158 19.8498 11.4742 19.0166 11.0704 18.0417C10.6666 17.0669 10.561 15.9942 10.7668 14.9593C10.9727 13.9244 11.4808 12.9738 12.2269 12.2277C12.973 11.4816 13.9236 10.9735 14.9585 10.7676C15.9934 10.5618 17.0661 10.6674 18.041 11.0712C19.0158 11.475 19.849 12.1588 20.4352 13.0361C21.0215 13.9135 21.3344 14.945 21.3344 16.0001C21.3344 17.4151 20.7723 18.772 19.7718 19.7726C18.7713 20.7731 17.4143 21.3351 15.9993 21.3351Z"
      fill="white"
    />
    <path
      d="M24.5403 9.37901C25.6006 9.37901 26.4602 8.51941 26.4602 7.45904C26.4602 6.39866 25.6006 5.53906 24.5403 5.53906C23.4799 5.53906 22.6203 6.39866 22.6203 7.45904C22.6203 8.51941 23.4799 9.37901 24.5403 9.37901Z"
      fill="white"
    />
  </g>
  <defs>
    <clipPath id="clip0_5920_1956">
      <rect
        width="32"
        height="32"
        fill="white"
        transform="translate(-0.000793457)"
      />
    </clipPath>
  </defs>
</svg>